<svg xmlns="http://www.w3.org/2000/svg" width="301.317" height="141.107" viewBox="0 0 301.317 141.107">
  <g id="Groupe_67" data-name="Groupe 67" transform="translate(-250.934 -82.137)">
    <path id="Tracé_22" data-name="Tracé 22" d="M156.7,189.15,130.62,206v11.616H156.7Z" transform="translate(167.433 -24.039)" fill="#ffb951"/>
    <path id="Tracé_23" data-name="Tracé 23" d="M57.245,43.554a140.431,140.431,0,0,0,26.482,20.24c9.336,5.672,19.069,10.427,29.353,12.8,11.428,2.636,24.429,3.185,35.1-3.373a20.689,20.689,0,0,0,9.65-14.191c1.075-6.5-1.039-13.046-6.151-15.959-5.617-3.2-11.673-1.25-17.207,1.2a89.757,89.757,0,0,0-14.516,8.12A93.367,93.367,0,0,0,95.635,76.441a130.752,130.752,0,0,0-16.24,33.887c-4.044,12.822-4.661,26.632,2.565,37.958A34.518,34.518,0,0,0,104.53,163.75c8.824,1.785,17.608-.465,25.107-6.427a49.761,49.761,0,0,0,6.854-6.83c1.19-1.395-.541-3.334-1.771-2.154-7.1,6.826-15.418,12.257-24.685,12.015a32.91,32.91,0,0,1-20.948-8.537A29.18,29.18,0,0,1,80.9,138.759a42.325,42.325,0,0,1-.758-19.315c2.017-12.134,7.691-22.5,14.134-31.834,11.9-17.24,28.134-32.3,46.225-38.217,3.885-1.272,10.065-1.763,11.756,3.974A12.956,12.956,0,0,1,148,66.707c-4.177,3.575-9.484,5.216-14.458,6.2a48.664,48.664,0,0,1-16.872.338C107.03,71.725,97.9,67.623,89.141,62.653A243.084,243.084,0,0,1,63.648,45.975c-1.793-1.338-3.564-2.715-5.3-4.167-.844-.706-1.912.943-1.107,1.746Z" transform="translate(214.522 58.898)" fill="#e5e5e5"/>
    <path id="Tracé_21" data-name="Tracé 21" d="M0,0,14.552,18.582V99.824H0V111.44H35.543V29.413" transform="translate(250.934 82.137)" fill="#ffb951"/>
    <path id="Tracé_24" data-name="Tracé 24" d="M7.738,0a8,8,0,0,1,7.738,8.233,8,8,0,0,1-7.738,8.233A8,8,0,0,1,0,8.233,8,8,0,0,1,7.738,0Z" transform="translate(337.713 195.93)" fill="#ffb951"/>
    <text id="Lucien_Chotard" data-name="Lucien
Chotard" transform="translate(394.251 155.559)" fill="#e5e5e5" font-size="39" font-family="Grad"><tspan x="0" y="0">Lucien</tspan><tspan font-family="OpenSans-Bold, Open Sans" font-weight="700"><tspan x="0" y="38">Chotard</tspan></tspan></text>
  </g>
</svg>
